<?xml version="1.0" encoding="utf-8"?>
<!DOCTYPE svg PUBLIC "-//W3C//DTD SVG 1.1//EN" "http://www.w3.org/Graphics/SVG/1.1/DTD/svg11.dtd">
<svg version="1.1" id="Layer_1" xmlns="http://www.w3.org/2000/svg" xmlns:xlink="http://www.w3.org/1999/xlink" x="0px" y="0px"
	 width="480px" height="159.75px" viewBox="0 0 480 159.75" enable-background="new 0 0 480 159.75" xml:space="preserve">
<g>
	<g>
		<path fill-rule="evenodd" clip-rule="evenodd" fill="#061129" d="M68.742,102.341H35.056c-2.118,0-3.259-0.785-4.999-1.793
			c1.118,1.751,1.851,3.053,3.789,4.121c1.133,0.623,2.432,0.979,3.808,0.979H71.34c4.367,0,7.938-3.572,7.938-7.939V60.552
			c0-2.916-1.298-4.732-3.416-6.576v6.576V95.22C75.863,99.135,72.658,102.341,68.742,102.341z"/>
		<g>
			<linearGradient id="SVGID_1_" gradientUnits="userSpaceOnUse" x1="34.1343" y1="94.79" x2="65.4314" y2="51.2206">
				<stop  offset="0" style="stop-color:#269CD9"/>
				<stop  offset="1" style="stop-color:#4CBBB4"/>
			</linearGradient>
			<path fill-rule="evenodd" clip-rule="evenodd" fill="url(#SVGID_1_)" d="M35.215,51.246h31.28c3.779,0,6.871,3.091,6.871,6.871
				v34.984c0,3.779-3.091,6.871-6.871,6.871h-31.28c-3.779,0-6.871-3.092-6.871-6.871v-2.522h17.922
				c0.514,0.882,1.47,1.475,2.564,1.475c1.639,0,2.966-1.328,2.966-2.965c0-1.642-1.328-2.967-2.966-2.967
				c-1.094,0-2.05,0.591-2.563,1.475H28.498c-2.99-0.105-2.992-4.397,0-4.503h24.451c0.514,0.884,1.47,1.477,2.564,1.477
				c1.638,0,2.966-1.329,2.966-2.969c0-1.637-1.328-2.967-2.966-2.967c-1.095,0-2.05,0.594-2.565,1.475H23.627
				c-2.979,0-2.98-4.501,0-4.501h17.696c0.514,0.884,1.47,1.477,2.565,1.477c1.638,0,2.966-1.329,2.966-2.967
				c0-1.639-1.328-2.967-2.966-2.967c-1.094,0-2.05,0.593-2.564,1.476H26.339c-2.977,0-2.978-4.502,0-4.502h25.312
				c0.514,0.882,1.47,1.474,2.564,1.474c1.639,0,2.967-1.328,2.967-2.966c0-1.638-1.328-2.966-2.967-2.966
				c-1.094,0-2.051,0.592-2.565,1.476H28.344h-8.096c-2.979,0-2.979-4.503,0-4.503h8.096v-2.522
				C28.344,54.337,31.436,51.246,35.215,51.246L35.215,51.246z M20.285,83.094c-2.979,0-2.978,4.503,0,4.503h1.427
				c2.977,0,2.978-4.503,0-4.503H20.285L20.285,83.094z M17.272,68.125c-2.978,0-2.977,4.502,0,4.502h1.962
				c2.978,0,2.978-4.502,0-4.502H17.272L17.272,68.125z M48.83,87.841c-0.689,0-1.247,0.557-1.247,1.248
				c0,0.688,0.558,1.247,1.247,1.247c0.689,0,1.248-0.559,1.248-1.247C50.078,88.397,49.52,87.841,48.83,87.841L48.83,87.841z
				 M55.513,80.354c-0.688,0-1.247,0.558-1.247,1.247s0.559,1.247,1.247,1.247c0.689,0,1.248-0.558,1.248-1.247
				S56.202,80.354,55.513,80.354L55.513,80.354z M43.888,72.871c-0.689,0-1.248,0.558-1.248,1.247s0.559,1.248,1.248,1.248
				c0.689,0,1.248-0.559,1.248-1.248S44.577,72.871,43.888,72.871L43.888,72.871z M54.215,65.386c-0.689,0-1.247,0.558-1.247,1.247
				c0,0.689,0.558,1.248,1.247,1.248c0.689,0,1.248-0.558,1.248-1.248C55.463,65.944,54.904,65.386,54.215,65.386z"/>
			<linearGradient id="SVGID_2_" gradientUnits="userSpaceOnUse" x1="46.6064" y1="68.8584" x2="43.8784" y2="49.6798">
				<stop  offset="0" style="stop-color:#269CD9"/>
				<stop  offset="1" style="stop-color:#4CBBB4"/>
			</linearGradient>
			<path fill-rule="evenodd" clip-rule="evenodd" fill="url(#SVGID_2_)" d="M26.339,68.125c8.437,0,16.875,0,25.312,0
				c0.513,0.882,1.47,1.474,2.564,1.474c1.639,0,2.966-1.328,2.966-2.966c0-1.638-1.327-2.966-2.966-2.966
				c-1.094,0-2.051,0.593-2.565,1.476c-10.468,0-20.935,0-31.403,0c-2.978,0-2.978-4.502,0-4.502h8.097v-2.522
				c0-3.781,3.092-6.872,6.871-6.872h31.28c2.246,0,4.73,1.265,5.839,3.261c-1.539,8.579-7.659,16.561-16.875,20.638
				c-4.203,1.858-8.573,2.693-12.783,2.614c-3.603-0.068-7.089-0.809-10.253-2.15h8.899c0.515,0.884,1.47,1.476,2.565,1.476
				c1.638,0,2.966-1.328,2.966-2.966c0-1.639-1.328-2.967-2.966-2.967c-1.094,0-2.05,0.593-2.565,1.476c-4.995,0-9.989,0-14.983,0
				C23.361,72.627,23.36,68.125,26.339,68.125L26.339,68.125z M54.215,67.88c0.5,0,0.929-0.292,1.128-0.716
				c0.076-0.162,0.119-0.341,0.119-0.532c0-0.688-0.557-1.248-1.247-1.248c-0.689,0-1.247,0.559-1.247,1.248
				c0,0.19,0.042,0.37,0.118,0.532C53.286,67.588,53.716,67.88,54.215,67.88L54.215,67.88z M45.135,74.118
				c0-0.689-0.558-1.248-1.248-1.248c-0.689,0-1.248,0.559-1.248,1.248s0.559,1.248,1.248,1.248
				C44.577,75.366,45.135,74.808,45.135,74.118z"/>
		</g>
	</g>
</g>
<g>
	<path fill="#1B243C" d="M87.389,71.858v-5.412h21.252v5.412H87.389z M103.361,100.238c-3.3,0-5.853-0.847-7.656-2.541
		c-1.805-1.693-2.706-4.125-2.706-7.293V56.15h6.27v33.33c0,1.628,0.406,2.871,1.221,3.729c0.813,0.858,1.99,1.287,3.531,1.287
		c0.439,0,0.924-0.088,1.452-0.264s1.165-0.528,1.914-1.056l2.376,4.884c-1.145,0.748-2.234,1.298-3.267,1.649
		C105.461,100.062,104.417,100.238,103.361,100.238z"/>
	<path fill="#1B243C" d="M128.902,100.238c-3.212,0-6.05-0.737-8.514-2.211c-2.465-1.474-4.4-3.509-5.808-6.105
		c-1.409-2.596-2.112-5.587-2.112-8.976c0-3.388,0.704-6.379,2.112-8.976c1.408-2.596,3.354-4.63,5.841-6.105
		c2.485-1.474,5.335-2.211,8.547-2.211c2.992,0,5.643,0.759,7.953,2.277s4.114,3.674,5.412,6.468
		c1.297,2.794,1.947,6.083,1.947,9.867h-6.27c0.043-2.815-0.297-5.191-1.023-7.128c-0.726-1.936-1.782-3.399-3.168-4.389
		c-1.386-0.99-3.047-1.485-4.983-1.485c-2.069,0-3.851,0.474-5.346,1.419c-1.496,0.947-2.651,2.289-3.465,4.026
		c-0.814,1.739-1.221,3.861-1.221,6.369c0,2.333,0.462,4.346,1.386,6.039c0.924,1.694,2.178,3.015,3.762,3.96
		c1.584,0.947,3.388,1.419,5.412,1.419c2.155,0,3.949-0.505,5.379-1.518c1.429-1.012,2.563-2.311,3.399-3.895l5.61,2.574
		c-0.881,1.716-2.024,3.224-3.432,4.521c-1.409,1.298-3.069,2.299-4.983,3.003C133.423,99.886,131.278,100.238,128.902,100.238z
		 M116.56,84.267l0.066-5.148h24.156v5.148H116.56z"/>
	<path fill="#1B243C" d="M159.658,100.238c-3.917,0-6.963-0.891-9.141-2.673c-2.178-1.782-3.267-4.257-3.267-7.425
		c0-3.388,1.132-5.974,3.399-7.755c2.266-1.782,5.422-2.674,9.471-2.674h9.174v4.95h-7.458c-3.036,0-5.171,0.474-6.402,1.419
		c-1.232,0.947-1.848,2.256-1.848,3.927c0,1.541,0.583,2.739,1.749,3.598c1.166,0.857,2.783,1.287,4.851,1.287
		c1.804,0,3.355-0.418,4.653-1.254c1.297-0.836,2.31-1.947,3.036-3.333c0.726-1.387,1.089-2.938,1.089-4.653h2.97
		c0,4.488-1.034,8.042-3.102,10.659C166.763,98.93,163.706,100.238,159.658,100.238z M169.293,99.446l-0.33-5.742V82.221
		c0-2.42-0.275-4.433-0.825-6.04c-0.551-1.605-1.386-2.827-2.508-3.663c-1.122-0.835-2.607-1.254-4.455-1.254
		c-1.716,0-3.224,0.353-4.521,1.056c-1.298,0.704-2.366,1.805-3.201,3.3l-5.676-2.112c0.792-1.495,1.804-2.838,3.036-4.026
		c1.231-1.188,2.716-2.123,4.455-2.805c1.738-0.682,3.751-1.023,6.039-1.023c3.08,0,5.665,0.594,7.755,1.782
		c2.089,1.188,3.652,2.959,4.686,5.313c1.034,2.354,1.528,5.27,1.485,8.745l-0.066,17.952H169.293z"/>
	<path fill="#1B243C" d="M196.815,100.238c-3.3,0-6.227-0.737-8.778-2.211c-2.552-1.474-4.543-3.509-5.973-6.105
		c-1.43-2.596-2.145-5.587-2.145-8.976c0-3.388,0.715-6.379,2.145-8.976c1.43-2.596,3.41-4.63,5.94-6.105
		c2.53-1.474,5.422-2.211,8.679-2.211c3.211,0,6.105,0.749,8.679,2.244c2.574,1.496,4.498,3.63,5.775,6.402l-5.676,2.376
		c-0.836-1.627-2.036-2.904-3.597-3.828c-1.563-0.924-3.356-1.386-5.379-1.386c-1.98,0-3.741,0.484-5.28,1.452
		c-1.541,0.969-2.75,2.322-3.63,4.059c-0.881,1.739-1.32,3.729-1.32,5.973s0.439,4.224,1.32,5.94
		c0.879,1.716,2.112,3.068,3.696,4.059s3.366,1.485,5.346,1.485c2.023,0,3.828-0.517,5.412-1.552
		c1.584-1.033,2.772-2.431,3.564-4.19l5.742,2.31c-1.276,2.904-3.201,5.171-5.775,6.798
		C202.986,99.425,200.071,100.238,196.815,100.238z"/>
	<path fill="#1B243C" d="M216.219,99.446l-0.066-46.926h6.27v46.926H216.219z M239.055,82.55c0-2.991-0.353-5.268-1.056-6.831
		c-0.705-1.561-1.662-2.65-2.871-3.267c-1.211-0.616-2.585-0.945-4.125-0.99c-2.729,0-4.841,0.947-6.336,2.838
		c-1.497,1.893-2.244,4.554-2.244,7.986h-2.64c0-3.476,0.505-6.457,1.518-8.943c1.012-2.485,2.475-4.389,4.389-5.709
		s4.191-1.98,6.831-1.98c4.003,0,7.138,1.221,9.405,3.663c2.266,2.442,3.377,6.193,3.333,11.253L239.055,82.55z M239.055,99.446
		V82.55l6.204-1.979v18.876H239.055z"/>
	<path fill="#1B243C" d="M266.708,100.238c-3.3,0-6.204-0.737-8.712-2.211s-4.478-3.509-5.907-6.105
		c-1.431-2.596-2.146-5.587-2.146-8.976c0-3.388,0.704-6.379,2.113-8.976c1.407-2.596,3.365-4.63,5.873-6.105
		c2.508-1.474,5.39-2.211,8.646-2.211c3.256,0,6.138,0.737,8.646,2.211c2.508,1.475,4.465,3.509,5.873,6.105
		c1.408,2.597,2.112,5.588,2.112,8.976c0,3.389-0.704,6.38-2.112,8.976c-1.408,2.597-3.355,4.632-5.841,6.105
		C272.769,99.501,269.92,100.238,266.708,100.238z M266.708,94.496c1.979,0,3.739-0.495,5.28-1.484
		c1.539-0.99,2.738-2.344,3.597-4.06s1.287-3.718,1.287-6.006c0-2.287-0.429-4.29-1.287-6.006c-0.858-1.716-2.079-3.069-3.663-4.059
		c-1.584-0.99-3.365-1.485-5.346-1.485c-2.024,0-3.807,0.495-5.346,1.485c-1.541,0.99-2.751,2.343-3.631,4.059
		c-0.881,1.716-1.319,3.719-1.319,6.006c0,2.288,0.438,4.29,1.319,6.006c0.88,1.716,2.112,3.069,3.696,4.06
		C262.88,94.001,264.684,94.496,266.708,94.496z"/>
	<path fill="#1B243C" d="M288.686,99.446v-46.2h6.27v46.2H288.686z"/>
	<path fill="#1B243C" d="M317.197,100.238c-3.301,0-6.205-0.737-8.713-2.211s-4.477-3.509-5.906-6.105
		c-1.431-2.596-2.146-5.587-2.146-8.976c0-3.388,0.704-6.379,2.112-8.976c1.408-2.596,3.365-4.63,5.874-6.105
		c2.508-1.474,5.39-2.211,8.646-2.211s6.139,0.737,8.646,2.211c2.508,1.475,4.465,3.509,5.874,6.105
		c1.407,2.597,2.112,5.588,2.112,8.976c0,3.389-0.705,6.38-2.112,8.976c-1.409,2.597-3.356,4.632-5.841,6.105
		C323.258,99.501,320.408,100.238,317.197,100.238z M317.197,94.496c1.979,0,3.738-0.495,5.279-1.484
		c1.54-0.99,2.739-2.344,3.598-4.06c0.857-1.716,1.287-3.718,1.287-6.006c0-2.287-0.43-4.29-1.287-6.006
		c-0.858-1.716-2.08-3.069-3.664-4.059c-1.584-0.99-3.365-1.485-5.346-1.485c-2.023,0-3.807,0.495-5.346,1.485
		c-1.541,0.99-2.75,2.343-3.63,4.059c-0.881,1.716-1.319,3.719-1.319,6.006c0,2.288,0.438,4.29,1.319,6.006
		c0.88,1.716,2.112,3.069,3.696,4.06C313.369,94.001,315.172,94.496,317.197,94.496z"/>
	<path fill="#1B243C" d="M352.242,98.984c-2.992,0-5.6-0.693-7.82-2.079c-2.223-1.386-3.961-3.321-5.215-5.808
		c-1.254-2.485-1.881-5.356-1.881-8.613c0-3.388,0.627-6.336,1.881-8.844c1.254-2.508,2.992-4.465,5.215-5.874
		c2.221-1.408,4.828-2.112,7.82-2.112c2.729,0,5.115,0.704,7.161,2.112c2.046,1.409,3.63,3.377,4.752,5.907
		c1.122,2.531,1.683,5.49,1.683,8.876c0,3.257-0.561,6.128-1.683,8.613c-1.122,2.486-2.706,4.412-4.752,5.775
		C357.357,98.303,354.971,98.984,352.242,98.984z M352.836,113.504c-2.2,0-4.202-0.209-6.006-0.627
		c-1.805-0.418-3.322-0.891-4.554-1.419c-1.232-0.527-2.156-0.989-2.772-1.386l2.377-5.082c0.57,0.352,1.386,0.759,2.441,1.221
		c1.057,0.462,2.287,0.858,3.696,1.188c1.407,0.33,2.97,0.495,4.687,0.495c2.022,0,3.827-0.407,5.411-1.222s2.827-2.078,3.729-3.795
		c0.9-1.716,1.353-3.915,1.353-6.6V66.446h6.271v29.7c0,3.783-0.717,6.963-2.146,9.537c-1.431,2.573-3.389,4.521-5.874,5.841
		C358.963,112.845,356.092,113.504,352.836,113.504z M353.826,93.704c1.848,0,3.453-0.495,4.818-1.484
		c1.363-0.99,2.441-2.332,3.234-4.026c0.791-1.693,1.188-3.641,1.188-5.841s-0.396-4.136-1.188-5.808
		c-0.793-1.672-1.881-2.98-3.268-3.927c-1.386-0.945-3.003-1.419-4.852-1.419c-1.936,0-3.641,0.474-5.114,1.419
		c-1.475,0.947-2.63,2.255-3.466,3.927c-0.836,1.672-1.254,3.608-1.254,5.808s0.43,4.147,1.287,5.841
		c0.858,1.694,2.023,3.036,3.498,4.026C350.186,93.209,351.89,93.704,353.826,93.704z"/>
	<path fill="#1B243C" d="M387.42,99.446l-14.455-33h6.666l11.947,28.644l1.914,4.356H387.42z M380.819,113.438
		c-0.968,0-2.036-0.177-3.2-0.528c-1.167-0.353-2.366-0.814-3.598-1.386l2.311-5.148c0.967,0.439,1.814,0.77,2.541,0.99
		c0.726,0.22,1.309,0.33,1.748,0.33c1.1,0,2.035-0.309,2.805-0.924c0.77-0.617,1.396-1.475,1.882-2.574l3.828-9.042l11.747-28.71
		h6.732l-15.642,37.092c-0.837,2.023-1.716,3.784-2.64,5.28c-0.924,1.495-2.058,2.64-3.399,3.432
		C384.592,113.042,382.887,113.438,380.819,113.438z"/>
	<path fill="#45BCC1" d="M413.026,100.37c-0.836,0-1.551-0.297-2.145-0.891c-0.595-0.594-0.892-1.309-0.892-2.146
		c0-0.835,0.297-1.551,0.892-2.145c0.594-0.594,1.309-0.892,2.145-0.892c0.835,0,1.551,0.298,2.146,0.892
		c0.594,0.594,0.891,1.31,0.891,2.145c0,0.837-0.297,1.552-0.891,2.146C414.577,100.073,413.861,100.37,413.026,100.37z"/>
	<path fill="#45BCC1" d="M433.287,100.238c-3.872,0-6.896-0.891-9.074-2.673c-2.179-1.782-3.268-4.257-3.268-7.425
		c0-3.256,1.089-5.786,3.268-7.591c2.178-1.803,5.202-2.705,9.074-2.705h9.9v3.63h-9.372c-3.168,0-5.445,0.583-6.831,1.749
		s-2.079,2.805-2.079,4.917c0,2.024,0.715,3.608,2.146,4.752c1.429,1.145,3.421,1.716,5.973,1.716c2.112,0,3.927-0.473,5.445-1.419
		c1.518-0.946,2.673-2.266,3.465-3.96c0.792-1.693,1.188-3.663,1.188-5.907h3.563c0,4.488-1.178,8.097-3.531,10.824
		C440.8,98.875,437.512,100.238,433.287,100.238z M443.451,99.446l-0.329-4.95V81.758c0-2.814-0.32-5.136-0.957-6.962
		c-0.639-1.825-1.629-3.201-2.971-4.125c-1.343-0.924-3.092-1.386-5.247-1.386c-2.111,0-3.927,0.419-5.444,1.254
		c-1.519,0.836-2.739,2.09-3.663,3.762l-3.564-1.584c0.968-1.584,2.079-2.904,3.333-3.96s2.662-1.837,4.225-2.343
		c1.561-0.505,3.267-0.759,5.114-0.759c2.947,0,5.39,0.594,7.326,1.782c1.936,1.188,3.388,2.97,4.356,5.346
		c0.967,2.376,1.452,5.368,1.452,8.976v17.688H443.451z"/>
	<path fill="#45BCC1" d="M456.914,57.866c-0.704,0-1.319-0.264-1.848-0.792s-0.792-1.144-0.792-1.848
		c0-0.748,0.264-1.375,0.792-1.881c0.528-0.505,1.144-0.759,1.848-0.759c0.748,0,1.375,0.253,1.881,0.759
		c0.506,0.506,0.76,1.133,0.76,1.881c0,0.705-0.254,1.32-0.76,1.848S457.662,57.866,456.914,57.866z M454.868,99.446l0.132-33h3.96
		l-0.132,33H454.868z"/>
</g>
</svg>
